<?xml version="1.0" encoding="utf-8"?>
<!-- Generator: Adobe Illustrator 19.0.0, SVG Export Plug-In . SVG Version: 6.00 Build 0)  -->
<svg version="1.1" id="Layer_1" xmlns="http://www.w3.org/2000/svg" xmlns:xlink="http://www.w3.org/1999/xlink" x="0px" y="0px"
	 viewBox="0 0 274.5 53.2" style="enable-background:new 0 0 274.5 53.2;" xml:space="preserve">
<g id="XMLID_68_">
	<path id="XMLID_69_" d="M0.8,1.3h28.6V11H20v42H10V11H0.8V1.3z"/>
	<path id="XMLID_71_" d="M36.1,1.3h10v19.5h17.3V1.3h9.9V53h-9.9V30.3H46.1V53h-10V1.3z"/>
	<path id="XMLID_73_" d="M85.1,1.3h28.2v9.6H94.9v9.4h18.5v9.5H94.9v13.6h18.5V53H85.1V1.3z"/>
	<path id="XMLID_75_" d="M142.7,1.3h9.8v42.3h14.3V53h-24.2V1.3z"/>
	<path id="XMLID_77_" d="M173.7,1.3h9.8V53h-9.8V1.3z"/>
	<path id="XMLID_79_" d="M194.6,1.3h9.4l22.1,34v-34h9.8V53h-9.5l-22.1-33.9V53h-9.8V1.3z"/>
	<path id="XMLID_81_" d="M247.8,1.3H276v9.6h-18.5v9.4H276v9.5h-18.5v13.6H276V53h-28.2V1.3z"/>
</g>
</svg>
